<svg xmlns="http://www.w3.org/2000/svg" fill="none" viewBox="0 0 178 61">
  <path fill="#E60000" d="m72 39-2-3-1-3h3l1 3 3 1 3-1 1-2-1-2h-1l-3-1-3-1-2-1-1-3 1-3 2-2 4-1 3 1a6 6 0 0 1 4 5h-3l-2-2-2-1-3 1-1 2 1 1 1 1h3l3 1 2 2 1 3-1 3-2 2h-8ZM96 26l2 3 1 3-1 4a6 6 0 0 1-8 3l-2-2v-1 9h-3V26h3v3-1l2-2 3-1 3 1Zm-6 2-1 2-1 2 1 3 1 1 2 1 2-1 2-1a6 6 0 0 0 0-5l-2-1-2-1h-2ZM104 38l-2-2-1-4 1-3 2-3 4-1 3 1 3 3 1 3-1 4-3 3a8 8 0 0 1-7-1Zm6-2 1-1a6 6 0 0 0 0-5l-1-2h-4l-2 2a6 6 0 0 0 0 5l2 1 2 1 2-1ZM119 26l1 3-1-1 2-2h3v2h-1l-3 1v10h-3V26h2ZM126 22h3v4h3v2h-3v8l1 1h2v2h-2l-3-1-1-3V22ZM137 39l-2-3-1-3h3l1 3 3 1 3-1 1-2-1-2h-1l-3-1-3-1-2-1-1-3 1-3 2-2 4-1 3 1a6 6 0 0 1 4 5h-3l-2-2-2-1-3 1-1 2 1 1 1 1h3l3 1 2 2 1 3-1 3-2 2h-8ZM153 38l-2-2-1-4 1-3 2-3 3-1 4 1 2 2 1 4v1h-10v2l2 1 2 1 2-1 1-1h3l-1 2-2 2h-3l-4-1Zm2-10-2 1v2h7l-1-2-3-1h-1ZM168 38l-2-2-1-4 1-3 2-3 3-1 4 1 2 2 1 4v1h-10v2l2 1 2 1 2-1 1-1h3l-1 2-2 2h-3l-4-1Zm2-10-1 1-1 2h7l-1-2-3-1h-1Z"/>
  <path fill="#FF0101" d="M30 59c15 0 28-13 28-29S45 1 30 1C14 1 1 14 1 30s13 29 29 29Z"/>
  <path fill="#020203" d="M42 17c3 0 5-2 5-4 0-3-2-5-5-5s-5 2-5 5c0 2 2 4 5 4Z"/>
  <mask id="a" width="58" height="58" x="1" y="1" maskUnits="userSpaceOnUse" style="mask-type:alpha">
    <path fill="#FF0101" d="M30 59c15 0 28-13 28-29S45 1 30 1C14 1 1 14 1 30s13 29 29 29Z"/>
  </mask>
  <g mask="url(#a)">
    <path fill="#020203" d="m41 30 1 1h1l9-5v-3h-2l-7 4-4-7-3-3-10-5-2 1-9 7v3h3l7-7 6 3-9 14L1 58v3h3l20-24 9 2-6 10a2 2 0 0 0 4 2l8-12v-2l-2-1-6-2 6-10 4 6Z"/>
  </g>
</svg>
